<?xml version="1.0" encoding="UTF-8"?>
<!-- Created with Inkscape (http://www.inkscape.org/) -->
<svg width="43.878mm" height="41.368mm" version="1.1" viewBox="0 0 43.878 41.368" xmlns="http://www.w3.org/2000/svg">
 <defs>
  <marker id="DartArrow" overflow="visible" markerHeight="1" markerWidth="1" orient="auto-start-reverse" preserveAspectRatio="xMidYMid" viewBox="0 0 1 1">
   <path transform="scale(-.5)" d="m0 0 5-5-17.5 5 17.5 5z" fill="context-stroke" fill-rule="evenodd"/>
  </marker>
  <marker id="DartArrow-2" overflow="visible" markerHeight="1" markerWidth="1" orient="auto-start-reverse" preserveAspectRatio="xMidYMid" viewBox="0 0 1 1">
   <path transform="scale(-.5)" d="m0 0 5-5-17.5 5 17.5 5z" fill="context-stroke" fill-rule="evenodd"/>
  </marker>
  <marker id="DartArrow-9" overflow="visible" markerHeight="1" markerWidth="1" orient="auto-start-reverse" preserveAspectRatio="xMidYMid" viewBox="0 0 1 1">
   <path transform="scale(-.5)" d="m0 0 5-5-17.5 5 17.5 5z" fill="context-stroke" fill-rule="evenodd"/>
  </marker>
  <marker id="DartArrow-2-7" overflow="visible" markerHeight="1" markerWidth="1" orient="auto-start-reverse" preserveAspectRatio="xMidYMid" viewBox="0 0 1 1">
   <path transform="scale(-.5)" d="m0 0 5-5-17.5 5 17.5 5z" fill="context-stroke" fill-rule="evenodd"/>
  </marker>
 </defs>
 <g transform="translate(-34.558 -32.629)">
  <path d="m40.242 57.533 12.67 12.67 17.952-10.364-12.596-12.596-17.997 10.39" fill="none" stroke="#000"/>
  <g fill="#fff" stroke="#000">
   <path d="m40.665 43.545 12.67 12.67 17.952-10.364-12.596-12.596-17.997 10.39"/>
   <path d="m40.593 43.394 0.13338 13.872"/>
   <path d="m53.531 55.665-0.53353 14.583"/>
   <path d="m71.093 45.928-0.13338 14.717"/>
  </g>
  <path d="m53.32 55.898-0.25151 14.462 17.731-10.312 0.12576-14.273z" fill="#b20000" opacity=".4026" stroke-opacity="0"/>
  <path d="m40.532 44.133 0.06288 13.77 12.261 12.072 0.31439-13.959z" fill="#b23200" opacity=".4026" stroke-opacity="0"/>
  <g>
   <path d="m60.629 59.883c0.0248-0.09922 0.03721-0.11989 0.08268-0.12816 0.02893-0.0083 0.1447-0.0083 0.21911-0.0083 0.35553 0 0.51263 0.01242 0.51263 0.28939 0 0.04961-0.01242 0.18604-0.02893 0.28112 0 0.01242-0.0083 0.05374-0.0083 0.06615 0 0.02067 0.0083 0.04547 0.04134 0.04547 0.03721 0 0.04548-0.02893 0.05374-0.08268l0.09508-0.61185c0.0041-0.01242 0.0041-0.04961 0.0041-0.05788 0-0.03721-0.03306-0.03721-0.09508-0.03721h-1.9472c-0.08682 0-0.09095 0-0.11162 0.07028l-0.21084 0.61598c-0.0041 0.0083-0.0248 0.05788-0.0248 0.06201 0 0.0248 0.02067 0.04134 0.04547 0.04134 0.03305 0 0.03721-0.01655 0.05788-0.07441 0.19017-0.5457 0.28112-0.60772 0.80202-0.60772h0.13643c0.09922 0 0.09922 0.01242 0.09922 0.04134 0 0.02067-0.01242 0.06201-0.01655 0.07442l-0.46716 1.8769c-0.03306 0.12816-0.04548 0.1695-0.42168 0.1695-0.12402 0-0.14469 0-0.14469 0.06615 0 0.04134 0.03721 0.04134 0.05788 0.04134 0.09508 0 0.1943-0.0083 0.28939-0.0083 0.09922 0 0.19844-0.0041 0.29766-0.0041 0.09922 0 0.19844 0.0041 0.29352 0.0041 0.09922 0 0.20671 0.0083 0.30592 0.0083 0.03305 0 0.07441 0 0.07441-0.07028 0-0.03721-0.02893-0.03721-0.11989-0.03721-0.08682 0-0.13229 0-0.22324-0.0083-0.10335-0.01242-0.12816-0.02067-0.12816-0.07855 0-0.0041 0-0.02067 0.01242-0.07441z"/>
   <path d="m62.004 60.98c0-0.06615-0.0041-0.07028-0.07442-0.07028-0.1571 0.15296-0.38034 0.1571-0.47956 0.1571v0.08681c0.05788 0 0.21911 0 0.35553-0.06615v1.2526c0 0.08268 0 0.11575-0.24391 0.11575h-0.09508v0.08682c0.04548-0.0041 0.34727-0.0083 0.43822-0.0083 0.07442 0 0.38447 0.0041 0.43822 0.0083v-0.08682h-0.09095c-0.24805 0-0.24805-0.03305-0.24805-0.11575z"/>
   <path d="m47.092 59.426c0.0248-0.09922 0.03721-0.11989 0.08268-0.12816 0.02893-0.0083 0.14469-0.0083 0.21911-0.0083 0.35553 0 0.51263 0.01242 0.51263 0.28939 0 0.04961-0.01238 0.18604-0.02893 0.28112 0 0.01242-0.0083 0.05374-0.0083 0.06615 0 0.02067 0.0083 0.04547 0.04134 0.04547 0.03721 0 0.04548-0.02893 0.05374-0.08268l0.09508-0.61185c0.0041-0.01242 0.0041-0.04961 0.0041-0.05788 0-0.03721-0.03306-0.03721-0.09508-0.03721h-1.9472c-0.08681 0-0.09095 0-0.11162 0.07028l-0.21084 0.61598c-0.0041 0.0083-0.0248 0.05788-0.0248 0.06201 0 0.0248 0.02067 0.04134 0.04548 0.04134 0.03305 0 0.0372-0.01654 0.05788-0.07441 0.19017-0.5457 0.28112-0.60772 0.80202-0.60772h0.13642c0.09922 0 0.09922 0.01242 0.09922 0.04134 0 0.02067-0.01238 0.06201-0.01655 0.07441l-0.46716 1.8769c-0.03306 0.12816-0.04548 0.1695-0.42168 0.1695-0.12402 0-0.1447 0-0.1447 0.06615 0 0.04134 0.03721 0.04134 0.05788 0.04134 0.09509 0 0.19431-0.0083 0.28939-0.0083 0.09922 0 0.19844-0.0041 0.29766-0.0041 0.09922 0 0.19844 0.0041 0.29352 0.0041 0.09922 0 0.20671 0.0083 0.30592 0.0083 0.03306 0 0.07441 0 0.07441-0.07028 0-0.03721-0.02893-0.03721-0.11989-0.03721-0.08682 0-0.13229 0-0.22324-0.0083-0.10335-0.01242-0.12816-0.02067-0.12816-0.07855 0-0.0041 0-0.02067 0.01242-0.07441z"/>
   <path d="m48.886 61.64h-0.08268c-0.0083 0.05374-0.02893 0.19844-0.06201 0.22324-0.02067 0.01242-0.21084 0.01242-0.24391 0.01242h-0.45476c0.26045-0.22738 0.34727-0.29766 0.49196-0.41341 0.1819-0.14469 0.3514-0.29766 0.3514-0.52917 0-0.29766-0.26045-0.47956-0.57464-0.47956-0.30592 0-0.51263 0.21497-0.51263 0.43822 0 0.12816 0.10748 0.14056 0.13229 0.14056 0.05788 0 0.13229-0.04134 0.13229-0.13229 0-0.04547-0.02067-0.12816-0.14883-0.12816 0.07855-0.17776 0.24391-0.23151 0.35967-0.23151 0.24805 0 0.3762 0.1943 0.3762 0.39274 0 0.21498-0.15296 0.38448-0.23151 0.47129l-0.59531 0.58704c-0.0248 0.02067-0.0248 0.0248-0.0248 0.09508h1.017z"/>
   <path d="m71.418 70.52c0.0248-0.09922 0.03721-0.11989 0.08268-0.12816 0.02894-0.0083 0.14469-0.0083 0.21911-0.0083 0.35553 0 0.51263 0.01242 0.51263 0.28939 0 0.04961-0.0124 0.18604-0.02894 0.28112 0 0.01242-0.0083 0.05374-0.0083 0.06615 0 0.02067 0.0083 0.04548 0.04134 0.04548 0.03721 0 0.04547-0.02893 0.05374-0.08268l0.09508-0.61185c0.0041-0.01242 0.0041-0.04961 0.0041-0.05788 0-0.03721-0.03307-0.03721-0.09508-0.03721h-1.9472c-0.08682 0-0.09095 0-0.11162 0.07028l-0.21084 0.61599c-0.0041 0.0083-0.0248 0.05788-0.0248 0.06201 0 0.0248 0.02067 0.04134 0.04548 0.04134 0.03307 0 0.03721-0.01654 0.05788-0.07442 0.19017-0.5457 0.28112-0.60772 0.80202-0.60772h0.13643c0.09922 0 0.09922 0.01242 0.09922 0.04134 0 0.02067-0.0124 0.06201-0.01653 0.07442l-0.46716 1.8769c-0.03307 0.12816-0.04547 0.1695-0.42168 0.1695-0.12402 0-0.14469 0-0.14469 0.06615 0 0.04134 0.03721 0.04134 0.05788 0.04134 0.09508 0 0.1943-0.0083 0.28939-0.0083 0.09922 0 0.19844-0.0041 0.29766-0.0041 0.09922 0 0.19844 0.0041 0.29352 0.0041 0.09922 0 0.2067 0.0083 0.30592 0.0083 0.03307 0 0.07441 0 0.07441-0.07028 0-0.03721-0.02894-0.03721-0.11989-0.03721-0.08682 0-0.13229 0-0.22324-0.0083-0.10335-0.01242-0.12816-0.02067-0.12816-0.07855 0-0.0041 0-0.02067 0.0124-0.07441z"/>
   <path d="m73.761 70.797v-0.08682h-0.27285v-1.0955c0-0.05374 0-0.07028-0.05374-0.07028-0.03307 0-0.04134 0-0.06615 0.03306l-0.81442 1.1327v0.08682h0.72347v0.20257c0 0.08268 0 0.11575-0.19844 0.11575h-0.06615v0.08682c0.12402-0.0041 0.28112-0.0083 0.36794-0.0083 0.09095 0 0.24805 0.0041 0.37207 0.0083v-0.08682h-0.06615c-0.19844 0-0.19844-0.03306-0.19844-0.11575v-0.20257zm-0.46716-0.98805v0.90123h-0.64906zm-0.38861 2.6799c0-0.04134 0-0.06202-0.03721-0.06202-0.0124 0-0.01653 0-0.04961 0.02893-0.0041 0-0.02894 0.0248-0.04134 0.0372-0.07441-0.05374-0.1695-0.06615-0.26045-0.06615-0.3514 0-0.43408 0.1819-0.43408 0.30592 0 0.07855 0.03307 0.1447 0.09095 0.19017 0.09509 0.08268 0.19017 0.09922 0.339 0.12403 0.12402 0.0248 0.32246 0.05788 0.32246 0.22324 0 0.09508-0.06615 0.20671-0.30179 0.20671-0.23564 0-0.32246-0.15296-0.3638-0.32246-0.0083-0.02893-0.0124-0.04134-0.04547-0.04134-0.04134 0-0.04134 0.01655-0.04134 0.06615v0.30179c0 0.04547 0 0.06615 0.03307 0.06615 0.02067 0 0.07028-0.05375 0.11989-0.10749 0.10749 0.10335 0.23978 0.10749 0.29766 0.10749 0.32246 0 0.43822-0.17363 0.43822-0.34727 0-0.09508-0.04134-0.16536-0.10335-0.22738-0.09508-0.08682-0.2067-0.10335-0.29352-0.11989-0.19844-0.03306-0.35553-0.06202-0.35553-0.19431 0-0.07855 0.06615-0.17363 0.29766-0.17363 0.28525 0 0.29766 0.19844 0.30179 0.26872 0.0041 0.02893 0.03307 0.02893 0.04134 0.02893 0.04548 0 0.04548-0.01655 0.04548-0.06615zm0.86093 1.4221c-0.1571 0-0.1819 0-0.1819-0.10749v-0.40101c0.0124 0.01242 0.12816 0.1447 0.33486 0.1447 0.32246 0 0.59945-0.24391 0.59945-0.55811 0-0.30179-0.24805-0.54984-0.56224-0.54984-0.14056 0-0.28112 0.04961-0.38447 0.14883v-0.14883l-0.36794 0.0248v0.09095c0.17363 0 0.18604 0.01238 0.18604 0.11575v1.1327c0 0.10749-0.0248 0.10749-0.18604 0.10749v0.08682c0.0041 0 0.17777-0.0083 0.28112-0.0083 0.09095 0 0.26045 0.0083 0.28112 0.0083zm-0.1819-1.2072c0.07441-0.12402 0.21497-0.18603 0.34726-0.18603 0.20671 0 0.3638 0.21497 0.3638 0.47129 0 0.28112-0.1819 0.48783-0.39274 0.48783-0.21497 0-0.31006-0.19017-0.31833-0.20257zm2.1477 0.16123c0-0.13229 0-0.22738-0.11162-0.31833-0.09922-0.08268-0.21911-0.11989-0.3638-0.11989-0.23564 0-0.39688 0.08682-0.39688 0.23564 0 0.07855 0.05374 0.11989 0.11576 0.11989 0.06615 0 0.11576-0.04548 0.11576-0.11162 0-0.04548-0.02067-0.09508-0.08682-0.11575 0.09095-0.06201 0.23151-0.06201 0.24805-0.06201 0.13643 0 0.28525 0.09095 0.28525 0.29766v0.07855c-0.13229 0.0041-0.29766 0.01242-0.47542 0.07855-0.22324 0.07855-0.28939 0.21497-0.28939 0.3266 0 0.21084 0.25632 0.27285 0.42995 0.27285 0.1943 0 0.31006-0.11162 0.3638-0.20671 0.0083 0.09922 0.07441 0.1943 0.19017 0.1943 0.0041 0 0.24391 0 0.24391-0.23564v-0.1323h-0.08682v0.13229c0 0.0248 0 0.14056-0.09095 0.14056s-0.09095-0.11576-0.09095-0.1447zm-0.1943 0.31006c0 0.23564-0.20671 0.30179-0.31419 0.30179-0.12816 0-0.24391-0.08268-0.24391-0.20257 0-0.13643 0.11576-0.3266 0.5581-0.34313zm1.4552-0.63252c-0.04134 0.01654-0.06615 0.05788-0.06615 0.10749 0 0.06615 0.04548 0.11575 0.11576 0.11575 0.06615 0 0.11576-0.04134 0.11576-0.11989 0-0.21911-0.339-0.21911-0.40928-0.21911-0.36794 0-0.59945 0.28112-0.59945 0.56224 0 0.31006 0.26458 0.55811 0.58704 0.55811 0.36794 0 0.45062-0.28939 0.45062-0.31833 0-0.03306-0.02894-0.03306-0.04134-0.03306-0.02894 0-0.03307 0.0083-0.04548 0.04548-0.05374 0.14883-0.18604 0.22738-0.33486 0.22738-0.1695 0-0.38861-0.12402-0.38861-0.47956 0-0.31419 0.14883-0.48369 0.38034-0.48369 0.02894 0 0.14883 0 0.23564 0.03721zm1.3777 0.41754c0.04961 0 0.06615 0 0.06615-0.05374 0-0.21498-0.11989-0.47956-0.48369-0.47956-0.32246 0-0.57051 0.25632-0.57051 0.55811 0 0.31006 0.27285 0.56224 0.59945 0.56224 0.33486 0 0.45476-0.26458 0.45476-0.31833 0-0.01238-0.0041-0.03721-0.04134-0.03721-0.02893 0-0.03721 0.01655-0.04134 0.04134-0.07855 0.19844-0.26458 0.23564-0.3514 0.23564-0.11576 0-0.22738-0.05374-0.30179-0.1447-0.09095-0.11575-0.09508-0.26458-0.09508-0.3638zm-0.76068-0.06201c0.0248-0.34726 0.24804-0.40514 0.34313-0.40514 0.30179 0 0.31006 0.34313 0.3142 0.40514z"/>
  </g>
  <g>
   <path d="m72.617 69.27-0.13725 2.4814 4.0008 0.37097 0.45557-3.0227z" fill="#fff" stroke-opacity="0"/>
   <path d="m35.976 68.964c0.0248-0.09922 0.03721-0.11989 0.08268-0.12816 0.02894-0.0083 0.14469-0.0083 0.21911-0.0083 0.35553 0 0.51263 0.01242 0.51263 0.28939 0 0.04961-0.0124 0.18604-0.02894 0.28112 0 0.01242-0.0083 0.05374-0.0083 0.06615 0 0.02067 0.0083 0.04548 0.04134 0.04548 0.03721 0 0.04547-0.02893 0.05374-0.08268l0.09508-0.61185c0.0041-0.01242 0.0041-0.04961 0.0041-0.05788 0-0.03721-0.03307-0.03721-0.09508-0.03721h-1.9472c-0.08682 0-0.09095 0-0.11162 0.07028l-0.21084 0.61599c-0.0041 0.0083-0.0248 0.05788-0.0248 0.06201 0 0.0248 0.02067 0.04134 0.04548 0.04134 0.03307 0 0.03721-0.01654 0.05788-0.07442 0.19017-0.5457 0.28112-0.60772 0.80202-0.60772h0.13643c0.09922 0 0.09922 0.01242 0.09922 0.04134 0 0.02067-0.0124 0.06201-0.01653 0.07442l-0.46716 1.8769c-0.03307 0.12816-0.04547 0.1695-0.42168 0.1695-0.12402 0-0.14469 0-0.14469 0.06615 0 0.04134 0.03721 0.04134 0.05788 0.04134 0.09508 0 0.1943-0.0083 0.28939-0.0083 0.09922 0 0.19844-0.0041 0.29766-0.0041 0.09922 0 0.19844 0.0041 0.29352 0.0041 0.09922 0 0.2067 0.0083 0.30592 0.0083 0.03307 0 0.07441 0 0.07441-0.07028 0-0.03721-0.02894-0.03721-0.11989-0.03721-0.08682 0-0.13229 0-0.22324-0.0083-0.10335-0.01242-0.12816-0.02067-0.12816-0.07855 0-0.0041 0-0.02067 0.0124-0.07441z"/>
   <path d="m38.319 69.241v-0.08682h-0.27285v-1.0955c0-0.05374 0-0.07028-0.05374-0.07028-0.03307 0-0.04134 0-0.06615 0.03306l-0.81442 1.1327v0.08682h0.72347v0.20257c0 0.08268 0 0.11575-0.19844 0.11575h-0.06615v0.08682c0.12402-0.0041 0.28112-0.0083 0.36794-0.0083 0.09095 0 0.24805 0.0041 0.37207 0.0083v-0.08682h-0.06615c-0.19844 0-0.19844-0.03306-0.19844-0.11575v-0.20257zm-0.46716-0.98805v0.90123h-0.64906zm-0.38861 2.6799c0-0.04134 0-0.06202-0.03721-0.06202-0.0124 0-0.01653 0-0.04961 0.02893-0.0041 0-0.02894 0.0248-0.04134 0.0372-0.07441-0.05374-0.1695-0.06615-0.26045-0.06615-0.3514 0-0.43408 0.1819-0.43408 0.30592 0 0.07855 0.03307 0.1447 0.09095 0.19017 0.09509 0.08268 0.19017 0.09922 0.339 0.12403 0.12402 0.0248 0.32246 0.05788 0.32246 0.22324 0 0.09508-0.06615 0.20671-0.30179 0.20671-0.23564 0-0.32246-0.15296-0.3638-0.32246-0.0083-0.02893-0.0124-0.04134-0.04547-0.04134-0.04134 0-0.04134 0.01655-0.04134 0.06615v0.30179c0 0.04547 0 0.06615 0.03307 0.06615 0.02067 0 0.07028-0.05375 0.11989-0.10749 0.10749 0.10335 0.23978 0.10749 0.29766 0.10749 0.32246 0 0.43822-0.17363 0.43822-0.34727 0-0.09508-0.04134-0.16536-0.10335-0.22738-0.09508-0.08682-0.2067-0.10335-0.29352-0.11989-0.19844-0.03306-0.35553-0.06202-0.35553-0.19431 0-0.07855 0.06615-0.17363 0.29766-0.17363 0.28525 0 0.29766 0.19844 0.30179 0.26872 0.0041 0.02893 0.03307 0.02893 0.04134 0.02893 0.04548 0 0.04548-0.01655 0.04548-0.06615zm0.86093 1.4221c-0.1571 0-0.1819 0-0.1819-0.10749v-0.40101c0.0124 0.01242 0.12816 0.1447 0.33486 0.1447 0.32246 0 0.59945-0.24391 0.59945-0.55811 0-0.30179-0.24805-0.54984-0.56224-0.54984-0.14056 0-0.28112 0.04961-0.38447 0.14883v-0.14883l-0.36794 0.0248v0.09095c0.17363 0 0.18604 0.01238 0.18604 0.11575v1.1327c0 0.10749-0.0248 0.10749-0.18604 0.10749v0.08682c0.0041 0 0.17777-0.0083 0.28112-0.0083 0.09095 0 0.26045 0.0083 0.28112 0.0083zm-0.1819-1.2072c0.07441-0.12402 0.21497-0.18603 0.34726-0.18603 0.20671 0 0.3638 0.21497 0.3638 0.47129 0 0.28112-0.1819 0.48783-0.39274 0.48783-0.21497 0-0.31006-0.19017-0.31833-0.20257zm2.1477 0.16123c0-0.13229 0-0.22738-0.11162-0.31833-0.09922-0.08268-0.21911-0.11989-0.3638-0.11989-0.23564 0-0.39688 0.08682-0.39688 0.23564 0 0.07855 0.05374 0.11989 0.11576 0.11989 0.06615 0 0.11576-0.04548 0.11576-0.11162 0-0.04548-0.02067-0.09508-0.08682-0.11575 0.09095-0.06201 0.23151-0.06201 0.24805-0.06201 0.13643 0 0.28525 0.09095 0.28525 0.29766v0.07855c-0.13229 0.0041-0.29766 0.01242-0.47542 0.07855-0.22324 0.07855-0.28939 0.21497-0.28939 0.3266 0 0.21084 0.25632 0.27285 0.42995 0.27285 0.1943 0 0.31006-0.11162 0.3638-0.20671 0.0083 0.09922 0.07441 0.1943 0.19017 0.1943 0.0041 0 0.24391 0 0.24391-0.23564v-0.1323h-0.08682v0.13229c0 0.0248 0 0.14056-0.09095 0.14056s-0.09095-0.11576-0.09095-0.1447zm-0.1943 0.31006c0 0.23564-0.20671 0.30179-0.31419 0.30179-0.12816 0-0.24391-0.08268-0.24391-0.20257 0-0.13643 0.11576-0.3266 0.5581-0.34313zm1.4552-0.63252c-0.04134 0.01654-0.06615 0.05788-0.06615 0.10749 0 0.06615 0.04548 0.11575 0.11576 0.11575 0.06615 0 0.11576-0.04134 0.11576-0.11989 0-0.21911-0.339-0.21911-0.40928-0.21911-0.36794 0-0.59945 0.28112-0.59945 0.56224 0 0.31006 0.26458 0.55811 0.58704 0.55811 0.36794 0 0.45062-0.28939 0.45062-0.31833 0-0.03306-0.02894-0.03306-0.04134-0.03306-0.02894 0-0.03307 0.0083-0.04548 0.04548-0.05374 0.14883-0.18604 0.22738-0.33486 0.22738-0.1695 0-0.38861-0.12402-0.38861-0.47956 0-0.31419 0.14883-0.48369 0.38034-0.48369 0.02894 0 0.14883 0 0.23564 0.03721zm1.3777 0.41754c0.04961 0 0.06615 0 0.06615-0.05374 0-0.21498-0.11989-0.47956-0.48369-0.47956-0.32246 0-0.57051 0.25632-0.57051 0.55811 0 0.31006 0.27285 0.56224 0.59945 0.56224 0.33486 0 0.45476-0.26458 0.45476-0.31833 0-0.01238-0.0041-0.03721-0.04134-0.03721-0.02893 0-0.03721 0.01655-0.04134 0.04134-0.07855 0.19844-0.26458 0.23564-0.3514 0.23564-0.11576 0-0.22738-0.05374-0.30179-0.1447-0.09095-0.11575-0.09508-0.26458-0.09508-0.3638zm-0.76068-0.06201c0.0248-0.34726 0.24804-0.40514 0.34313-0.40514 0.30179 0 0.31006 0.34313 0.3142 0.40514z"/>
   <path d="m37.176 67.715-0.13725 2.4814 4.0008 0.37097 0.45557-3.0227z" fill="#fff" stroke-opacity="0"/>
   <path d="m56.669 59.391c0-0.0083-0.0083-0.03306-0.03721-0.03306-0.01242 0-0.01655 0.0041-0.05374 0.04134l-0.24805 0.26872c-0.02893-0.04961-0.19017-0.31006-0.58291-0.31006-0.78135 0-1.571 0.77722-1.571 1.5916 0 0.5581 0.38861 0.96325 0.95912 0.96325 0.15296 0 0.31006-0.03306 0.43822-0.08682 0.17363-0.07028 0.23978-0.1447 0.30592-0.21498 0.02893 0.09095 0.12402 0.21911 0.1571 0.21911 0.01655 0 0.0248-0.0083 0.0248-0.01242 0.0083-0.0083 0.04134-0.14056 0.05788-0.21497l0.07028-0.27285c0.01242-0.05788 0.02893-0.11576 0.04548-0.17777 0.03721-0.1571 0.04134-0.16536 0.23978-0.1695 0.02067 0 0.05788-0.0041 0.05788-0.07028 0-0.0248-0.01655-0.0372-0.04548-0.0372-0.08268 0-0.28939 0.0083-0.36793 0.0083-0.11162 0-0.38448-0.0083-0.49196-0.0083-0.03306 0-0.07441 0-0.07441 0.07028 0 0.03721 0.02893 0.03721 0.10335 0.03721 0.0041 0 0.10748 0 0.18603 0.0083 0.09095 0.01242 0.11162 0.02067 0.11162 0.06615 0 0.03305-0.04134 0.19017-0.07442 0.31832-0.09922 0.38861-0.5581 0.42582-0.678 0.42582-0.33899 0-0.70693-0.19844-0.70693-0.73587 0-0.11162 0.03305-0.6904 0.40514-1.1452 0.19017-0.23978 0.52917-0.45475 0.87644-0.45475 0.35967 0 0.56637 0.27285 0.56637 0.678 0 0.14056-0.01242 0.14469-0.01242 0.17776 0 0.03721 0.04134 0.03721 0.05375 0.03721 0.04547 0 0.04547-0.0083 0.06201-0.07028z"/>
  </g>
  <path d="m50.994 62.516 2.105 1.6895 3.1767-1.4066" fill="none" marker-end="url(#DartArrow)" marker-start="url(#DartArrow)" stroke="#000" stroke-width=".3"/>
  <path d="m63.874 62.079s0.61347 0.60655 1.0909 1.466c0.52806 0.95052-0.16584 2.0474 1.221 2.5133 1.4644 0.49192 0.73361 1.8229 2.312 2.7788" fill="none" marker-end="url(#DartArrow-2)" marker-start="url(#DartArrow)" stroke="#000" stroke-width=".3"/>
  <path d="m68.031 65.021c0.11576 0.04961 0.21911 0.04961 0.30179 0.04961 0.09095 0 0.28525 0 0.28525-0.10749 0-0.08682-0.12402-0.09508-0.25632-0.09508-0.07441 0-0.19844 0.0041-0.3266 0.06615-0.08268-0.04134-0.14056-0.11162-0.14056-0.2067 0-0.21084 0.34313-0.339 0.66146-0.339 0.05374 0 0.1819 0 0.32246 0.09922 0.03721 0.02893 0.04548 0.03305 0.07028 0.03305 0.04547 0 0.09508-0.04548 0.09508-0.09508 0-0.06615-0.21497-0.19844-0.45475-0.19844-0.40514 0-0.78548 0.23564-0.78548 0.50023 0 0.15296 0.12816 0.23978 0.14056 0.25218-0.2067 0.11575-0.31833 0.31006-0.31833 0.47542 0 0.22738 0.20257 0.44235 0.57464 0.44235 0.46302 0 0.65732-0.31006 0.65732-0.3638 0-0.02067-0.01654-0.03305-0.03721-0.03305-0.01653 0-0.02894 0.01242-0.03307 0.0248-0.04961 0.07855-0.13643 0.21084-0.55811 0.21084-0.21497 0-0.51263-0.05374-0.51263-0.30592 0-0.11575 0.09922-0.30179 0.31419-0.40928zm0.11576-0.04548c0.07855-0.02893 0.15296-0.03306 0.21497-0.03306 0.08682 0 0.09922 0.0041 0.16536 0.02067-0.05374 0.0248-0.06201 0.02893-0.1943 0.02893-0.07855 0-0.11989 0-0.18604-0.01655zm2.8463-0.46716c0.04547 0 0.17363 0 0.17363-0.11989 0-0.08268-0.07441-0.08268-0.13642-0.08268h-0.80202c-0.52917 0-0.92191 0.57878-0.92191 0.99632 0 0.31006 0.20671 0.55397 0.52917 0.55397 0.41341 0 0.88057-0.42581 0.88057-0.96325 0-0.06202 0-0.23151-0.10749-0.38448zm-1.1534 1.2733c-0.17363 0-0.31419-0.12816-0.31419-0.38034 0-0.10749 0.04134-0.39274 0.16536-0.60358 0.14883-0.23978 0.35967-0.28939 0.47956-0.28939 0.29352 0 0.32246 0.23151 0.32246 0.339 0 0.16536-0.07028 0.45475-0.19017 0.63252-0.13643 0.21084-0.3266 0.30179-0.46302 0.30179zm2.0981-0.36794c-0.14056 0.23564-0.27699 0.28525-0.42995 0.29766-0.04547 0-0.07441 0-0.07441 0.07028 0 0.02067 0.01653 0.03721 0.04547 0.03721 0.09509 0 0.20257-0.01242 0.30179-0.01242 0.11576 0 0.23978 0.01242 0.3514 0.01242 0.02067 0 0.06614 0 0.06614-0.06615 0-0.04134-0.03307-0.04134-0.05788-0.04134-0.07855-0.0083-0.16123-0.03721-0.16123-0.12402 0-0.04134 0.02067-0.08268 0.04548-0.13229l0.26872-0.44649h0.88057c0.0083 0.07028 0.05788 0.54984 0.05788 0.58704 0 0.10335-0.1819 0.11576-0.25218 0.11576-0.04961 0-0.08682 0-0.08682 0.07028 0 0.03721 0.04548 0.03721 0.04961 0.03721 0.14469 0 0.29766-0.01242 0.44235-0.01242 0.08682 0 0.30592 0.01242 0.39688 0.01242 0.02067 0 0.06201 0 0.06201-0.07028 0-0.03721-0.03721-0.03721-0.08268-0.03721-0.21497 0-0.21497-0.0248-0.22738-0.12816l-0.21497-2.1952c-0.0041-0.07028-0.0041-0.08682-0.06615-0.08682-0.05788 0-0.07028 0.0248-0.09095 0.06201zm0.42168-0.51677 0.69453-1.1576 0.11162 1.1576z"/>
  <path d="m44.38 61.82s-0.61347 0.60655-1.0909 1.466c-0.52806 0.95052 0.16584 2.0474-1.221 2.5133-1.4644 0.49192-0.73361 1.8229-2.312 2.7788" fill="none" marker-end="url(#DartArrow-2-7)" marker-start="url(#DartArrow-9)" stroke="#000" stroke-width=".3"/>
  <path d="m35.868 64.111c0.11576 0.04961 0.21911 0.04961 0.30179 0.04961 0.09095 0 0.28525 0 0.28525-0.10749 0-0.08682-0.12402-0.09508-0.25632-0.09508-0.07441 0-0.19844 0.0041-0.3266 0.06615-0.08268-0.04134-0.14056-0.11162-0.14056-0.2067 0-0.21084 0.34313-0.339 0.66146-0.339 0.05374 0 0.1819 0 0.32246 0.09922 0.03721 0.02893 0.04548 0.03305 0.07028 0.03305 0.04547 0 0.09508-0.04548 0.09508-0.09508 0-0.06615-0.21497-0.19844-0.45475-0.19844-0.40514 0-0.78548 0.23564-0.78548 0.50023 0 0.15296 0.12816 0.23978 0.14056 0.25218-0.2067 0.11575-0.31833 0.31006-0.31833 0.47542 0 0.22738 0.20257 0.44235 0.57464 0.44235 0.46302 0 0.65732-0.31006 0.65732-0.3638 0-0.02067-0.01654-0.03305-0.03721-0.03305-0.01653 0-0.02894 0.01242-0.03307 0.0248-0.04961 0.07855-0.13643 0.21084-0.55811 0.21084-0.21497 0-0.51263-0.05374-0.51263-0.30592 0-0.11575 0.09922-0.30179 0.31419-0.40928zm0.11576-0.04548c0.07855-0.02893 0.15296-0.03306 0.21497-0.03306 0.08682 0 0.09922 0.0041 0.16536 0.02067-0.05374 0.0248-0.06201 0.02893-0.1943 0.02893-0.07855 0-0.11989 0-0.18604-0.01655zm2.8463-0.46716c0.04547 0 0.17363 0 0.17363-0.11989 0-0.08268-0.07441-0.08268-0.13642-0.08268h-0.80202c-0.52917 0-0.92191 0.57878-0.92191 0.99632 0 0.31006 0.20671 0.55397 0.52917 0.55397 0.41341 0 0.88057-0.42581 0.88057-0.96325 0-0.06202 0-0.23151-0.10749-0.38448zm-1.1534 1.2733c-0.17363 0-0.31419-0.12816-0.31419-0.38034 0-0.10749 0.04134-0.39274 0.16536-0.60358 0.14883-0.23978 0.35967-0.28939 0.47956-0.28939 0.29352 0 0.32246 0.23151 0.32246 0.339 0 0.16536-0.07028 0.45475-0.19017 0.63252-0.13643 0.21084-0.3266 0.30179-0.46302 0.30179zm2.0981-0.36794c-0.14056 0.23564-0.27699 0.28525-0.42995 0.29766-0.04547 0-0.07441 0-0.07441 0.07028 0 0.02067 0.01653 0.03721 0.04547 0.03721 0.09509 0 0.20257-0.01242 0.30179-0.01242 0.11576 0 0.23978 0.01242 0.3514 0.01242 0.02067 0 0.06614 0 0.06614-0.06615 0-0.04134-0.03307-0.04134-0.05788-0.04134-0.07855-0.0083-0.16123-0.03721-0.16123-0.12402 0-0.04134 0.02067-0.08268 0.04548-0.13229l0.26872-0.44649h0.88057c0.0083 0.07028 0.05788 0.54984 0.05788 0.58704 0 0.10335-0.1819 0.11576-0.25218 0.11576-0.04961 0-0.08682 0-0.08682 0.07028 0 0.03721 0.04548 0.03721 0.04961 0.03721 0.14469 0 0.29766-0.01242 0.44235-0.01242 0.08682 0 0.30592 0.01242 0.39688 0.01242 0.02067 0 0.06201 0 0.06201-0.07028 0-0.03721-0.03721-0.03721-0.08268-0.03721-0.21497 0-0.21497-0.0248-0.22738-0.12816l-0.21497-2.1952c-0.0041-0.07028-0.0041-0.08682-0.06615-0.08682-0.05788 0-0.07028 0.0248-0.09095 0.06201zm0.42168-0.51677 0.69453-1.1576 0.11162 1.1576z"/>
 </g>
</svg>
